# xmcd CD database file
#
# Track frame offsets:
#	150
#	20975
#	42422
#	60745
#	82287
#	102687
#	125952
#	144312
#	164567
#	188147
#
# Disc length: 2842 seconds
#
# Revision: 0
# Processed by: cddbd v1.5.1PL0 Copyright (c) Steve Scherf et al.
# Submitted via: CDex 1.51
#
DISCID=9f0b180a
DTITLE=草地章江 - Pure
DYEAR=1998
DGENRE=JPop
TTITLE0=STILL LOVE
TTITLE1=世界一星空が遠い場所から
TTITLE2=Pure
TTITLE3=KI-RA KI-RA
TTITLE4=二人のラストシーン
TTITLE5=DESTINY
TTITLE6=恋は輝きの中に
TTITLE7=IN MY SOUL
TTITLE8=Give me your love
TTITLE9=夜明け
EXTD=YEAR: 1998
EXTT0=
EXTT1=
EXTT2=
EXTT3=
EXTT4=
EXTT5=
EXTT6=
EXTT7=
EXTT8=
EXTT9=
PLAYORDER=
